<svg width="115" height="138" viewBox="0 0 115 138" fill="none" xmlns="http://www.w3.org/2000/svg">
<path d="M48.1736 0.627994C47.477 0.874507 46.8446 1.45328 46.5124 2.16066C46.3087 2.56794 46.298 2.92164 46.298 9.37384C46.298 16.8764 46.2659 16.5013 47.0161 17.3266C47.7449 18.1411 48.0665 18.2269 50.5637 18.2697L52.7288 18.3126V21.0778V23.8431L51.9571 23.9181C40.7247 24.947 30.1353 29.1806 21.5074 36.1044C20.9393 36.5653 20.4249 36.9404 20.382 36.9404C20.3391 36.9404 19.9961 36.6403 19.6317 36.2652L18.9672 35.6007L19.9426 34.636C21.1644 33.4142 21.3466 33.1355 21.3466 32.396C21.3466 31.9566 21.2823 31.6993 21.0787 31.3456C20.6821 30.6704 14.605 24.6576 14.1227 24.454C13.5975 24.2396 13.008 24.2504 12.4829 24.4969C11.9577 24.7434 3.91922 32.7711 3.75845 33.2213C3.58697 33.65 3.61912 34.3145 3.80132 34.7754C4.01568 35.2684 10.007 41.324 10.693 41.7313C11.2074 42.0421 12.097 42.0957 12.5579 41.8599C12.6865 41.7956 13.2867 41.2597 13.8762 40.681L14.9587 39.6199L15.5911 40.263L16.2234 40.8953L15.3124 41.8385C10.1464 47.2296 5.8163 54.4214 3.10466 62.149C0.585939 69.2657 -0.453703 77.7329 0.21081 85.5463C1.60414 101.709 9.76051 116.435 22.7721 126.242C31.3357 132.705 41.3356 136.51 52.3001 137.496C54.3043 137.668 59.7276 137.668 61.7319 137.496C71.5281 136.617 80.3275 133.573 88.3124 128.311C100.584 120.219 109.266 107.786 112.535 93.6384C114.711 84.2387 114.486 74.5497 111.87 65.15C110.413 59.8768 107.776 54.132 104.657 49.3839C100.96 43.757 95.9221 38.4838 90.456 34.5289C84.2717 30.0488 77.3479 26.8977 69.9311 25.1721C67.3909 24.5719 64.1005 24.0574 61.8712 23.9074L60.7672 23.8324V21.0671V18.3126L62.943 18.2697C65.4295 18.2269 65.7511 18.1411 66.4799 17.3266C67.2302 16.5013 67.198 16.8764 67.198 9.37384C67.198 1.7641 67.2302 2.13922 66.4049 1.32466C65.5474 0.499379 66.2012 0.552968 56.8552 0.531533C51.2068 0.520815 48.388 0.552968 48.1736 0.627994ZM60.9494 32.3853C71.3566 33.2749 80.8205 37.2298 88.6875 44.0035C96.533 50.7558 102.128 60.0697 104.325 70.0589C105.193 74.0031 105.408 76.0824 105.408 80.6696C105.408 84.7425 105.322 85.9107 104.754 89.1368C102.707 100.916 96.2115 111.634 86.6511 119.04C80.5204 123.788 73.0393 127.1 65.4831 128.407C62.1499 128.986 61.196 129.061 57.016 129.061C52.836 129.061 51.8821 128.986 48.5488 128.407C36.5661 126.328 25.5802 119.565 18.2063 109.715C12.9973 102.77 9.91056 94.9888 8.81733 86.0286C8.53866 83.7993 8.54938 77.5293 8.81733 75.3107C9.77122 67.6259 12.0649 61.0987 15.9984 54.8394C21.8182 45.6005 30.8106 38.4624 41.0998 34.904C47.4234 32.7175 54.4222 31.8279 60.9494 32.3853Z" fill="#1F9E97"/>
<path d="M56.4799 37.3691V39.9414H57.0157H57.5515V37.3691V34.7968H57.0157H56.4799V37.3691Z" fill="#1F9E97"/>
<path d="M34.0793 40.9277C33.8756 41.0563 33.6934 41.1742 33.672 41.1849C33.6506 41.1956 35.9979 45.3327 36.1801 45.6006C36.2337 45.6757 37.0804 45.1826 37.0804 45.0755C37.0804 44.9254 34.6152 40.6919 34.5295 40.6919C34.4866 40.6919 34.2829 40.7991 34.0793 40.9277Z" fill="#1F9E97"/>
<path d="M78.1949 42.8996C77.4983 44.1107 76.941 45.1075 76.9625 45.1289C77.1768 45.2897 77.8305 45.6327 77.852 45.6112C77.9699 45.4719 80.3919 41.2062 80.3598 41.1847C80.2312 41.0883 79.5453 40.6917 79.5131 40.6917C79.481 40.6917 78.8915 41.6885 78.1949 42.8996Z" fill="#1F9E97"/>
<path d="M56.2334 43.4996L55.4296 45.0323L55.3117 49.7482C55.2474 52.342 55.1402 56.104 55.0866 58.1083C54.8937 64.657 54.7758 69.2014 54.7007 72.0738L54.6257 74.8926L54.0469 75.1713C52.182 76.093 50.7887 78.3653 50.778 80.5517C50.7565 82.288 51.3139 83.7242 52.45 84.9354C53.7147 86.2751 55.2152 86.9289 57.0158 86.9289C58.8164 86.9289 60.3169 86.2751 61.5817 84.9354C63.1572 83.2634 63.6824 80.8733 62.9428 78.7189C62.7713 78.2259 62.4498 77.54 62.2247 77.2077C61.6996 76.4253 60.7242 75.5357 59.9632 75.1606L59.3738 74.8712V74.2603C59.3738 73.928 59.2023 67.1971 58.9986 59.3194L58.6235 44.9894L57.8732 43.4782C57.4552 42.6529 57.1016 41.9777 57.0801 41.9777C57.048 41.9777 56.6728 42.6636 56.2334 43.4996ZM57.959 78.9226C58.72 79.2763 59.1808 80.3374 58.9558 81.1734C58.72 82.0308 57.8732 82.706 57.0158 82.706C56.5014 82.706 55.8368 82.3738 55.4831 81.9665C55.1509 81.5592 54.9365 80.8625 55.0223 80.4231C55.3117 78.9869 56.6407 78.3009 57.959 78.9226Z" fill="#1F9E97"/>
<path d="M17.3703 57.6689C17.2417 57.8618 17.1452 58.0654 17.1452 58.119C17.1452 58.2262 21.3145 60.6592 21.4753 60.6485C21.5289 60.6485 21.6789 60.4555 21.8183 60.2305L22.0648 59.8125L19.889 58.5585C18.6886 57.8725 17.6811 57.3045 17.6489 57.3045C17.6168 57.3045 17.4882 57.4652 17.3703 57.6689Z" fill="#1F9E97"/>
<path d="M94.2074 58.5263C93.0606 59.1908 92.1174 59.7803 92.096 59.8339C92.0745 59.8875 92.171 60.1125 92.3103 60.3269L92.5461 60.7235L93.993 59.8875C94.7862 59.4373 95.7829 58.8585 96.2117 58.612L96.9726 58.1618L96.7475 57.7331C96.6189 57.4973 96.4689 57.3044 96.4046 57.3151C96.351 57.3151 95.3542 57.8617 94.2074 58.5263Z" fill="#1F9E97"/>
<path d="M11.2393 80.1015C11.1964 80.2623 11.2393 81.0983 11.2929 81.0983C11.325 81.0983 12.4719 81.0983 13.8224 81.0983H16.2875V80.5838V80.0801H13.7688C12.3861 80.0801 11.25 80.0908 11.2393 80.1015Z" fill="#1F9E97"/>
<path d="M97.7441 80.5838V81.0983H100.327H102.899L102.867 80.616L102.835 80.123L100.284 80.1015L97.7441 80.0801V80.5838Z" fill="#1F9E97"/>
<path d="M19.3425 101.752C18.1636 102.427 17.1775 102.995 17.1668 103.017C17.1025 103.081 17.2525 103.435 17.4562 103.703L17.6491 103.96L19.857 102.684L22.0649 101.409L21.8398 101.034C21.7112 100.83 21.5826 100.627 21.5504 100.584C21.5183 100.541 20.5215 101.066 19.3425 101.752Z" fill="#1F9E97"/>
<path d="M92.2887 100.937C92.1494 101.173 92.0851 101.409 92.1279 101.463C92.278 101.602 96.3401 103.928 96.4259 103.928C96.4795 103.928 96.6188 103.735 96.7474 103.499L96.9725 103.07L95.9436 102.459C95.3755 102.127 94.3787 101.548 93.7464 101.173C93.1033 100.809 92.5674 100.498 92.5567 100.498C92.5459 100.498 92.4173 100.691 92.2887 100.937Z" fill="#1F9E97"/>
<path d="M34.9153 117.818L33.6614 120.015L34.1008 120.283C34.3366 120.433 34.5724 120.519 34.6152 120.465C34.7439 120.326 37.0803 116.232 37.0803 116.146C37.0803 116.082 36.2979 115.6 36.2122 115.61C36.1907 115.621 35.6013 116.607 34.9153 117.818Z" fill="#1F9E97"/>
<path d="M77.3802 115.846C77.1766 115.975 76.9836 116.093 76.9622 116.103C76.9407 116.125 79.3632 120.391 79.4811 120.53C79.5025 120.551 80.1456 120.208 80.3707 120.048C80.4136 120.005 77.884 115.61 77.809 115.61C77.7768 115.61 77.5839 115.718 77.3802 115.846Z" fill="#1F9E97"/>
<path d="M56.4799 123.863V126.435H57.0157H57.5515V123.863V121.291H57.0157H56.4799V123.863Z" fill="#1F9E97"/>
</svg>
